# This file uses centimeters as units for non-parametric coordinates.

mtllib Floor02.mtl
g default
v 2.192106 0.211406 2.413616
v 2.519487 0.328300 2.335461
v 2.285892 0.400545 2.621919
v 2.141524 0.211406 2.798959
v 2.285893 0.076450 2.621919
v 2.519487 0.076450 2.335461
v 2.815604 0.211406 2.495461
v 2.671235 0.400545 2.672501
v 2.437642 0.328300 2.958958
v 2.437642 0.076450 2.958958
v 2.671235 0.076450 2.672501
v 2.765022 0.211406 2.880804
v -4.153015 -0.000000 4.153015
v 4.153015 -0.000000 4.153015
v -4.153015 0.000000 -4.153015
v 4.153015 0.000000 -4.153015
v 2.984923 0.195452 2.732318
v 3.409886 0.381181 3.056962
v 2.822600 0.495968 3.056962
v 2.459638 0.195452 3.056962
v 2.822600 -0.018974 3.056962
v 3.409886 -0.018973 3.056962
v 3.510206 0.195452 3.582245
v 3.147245 0.495968 3.582245
v 2.559959 0.381181 3.582245
v 2.559959 -0.018974 3.582245
v 3.147245 -0.018974 3.582245
v 2.984923 0.195452 3.906889
vt 0.803025 0.962061
vt 0.815108 0.944163
vt 0.832076 0.966985
vt 0.822331 0.983976
vt 0.798169 0.930772
vt 0.824106 0.917306
vt 0.786846 0.948883
vt 0.779236 0.976671
vt 0.841075 0.940128
vt 0.783026 0.917056
vt 0.809321 0.904297
vt 0.846861 0.979994
vt 0.858014 0.953519
vt 0.873157 0.967236
vt 0.853158 0.922230
vt 0.833852 0.900315
vt 0.876947 0.907620
vt 0.869337 0.935408
vt 0.009941 0.511347
vt 0.481951 0.511347
vt 0.481951 0.983358
vt 0.009941 0.983358
vt 0.803025 0.962061
vt 0.815108 0.944163
vt 0.832076 0.966985
vt 0.822331 0.983976
vt 0.798169 0.930772
vt 0.824106 0.917306
vt 0.786846 0.948883
vt 0.779236 0.976671
vt 0.841075 0.940128
vt 0.783026 0.917056
vt 0.809321 0.904297
vt 0.846861 0.979994
vt 0.858014 0.953519
vt 0.873157 0.967236
vt 0.853158 0.922230
vt 0.833852 0.900315
vt 0.876947 0.907620
vt 0.869337 0.935408
vn -0.358196 0.459958 -0.812486
vn -0.358196 0.459959 -0.812486
vn -0.358196 0.459958 -0.812486
vn -0.358196 0.459958 -0.812486
vn -0.701746 0.692450 0.167528
vn -0.701746 0.692450 0.167528
vn -0.701746 0.692450 0.167528
vn -0.701746 0.692450 0.167528
vn -0.577771 -0.778748 -0.244402
vn -0.577771 -0.778748 -0.244402
vn -0.577771 -0.778748 -0.244402
vn -0.577771 -0.778748 -0.244402
vn -0.000000 1.000000 0.000000
vn -0.000000 1.000000 0.000000
vn -0.000000 1.000000 0.000000
vn -0.000000 1.000000 0.000000
vn -0.577053 -0.508049 0.639449
vn -0.577053 -0.508049 0.639449
vn -0.577053 -0.508049 0.639449
vn -0.577053 -0.508049 0.639449
vn 0.577053 -0.508050 -0.639449
vn 0.577052 -0.508050 -0.639449
vn 0.577053 -0.508050 -0.639449
vn 0.577052 -0.508050 -0.639449
vn 0.701747 0.692450 -0.167527
vn 0.701747 0.692450 -0.167527
vn 0.701747 0.692450 -0.167527
vn 0.701747 0.692450 -0.167527
vn 0.358196 0.459958 0.812486
vn 0.358196 0.459958 0.812486
vn 0.358196 0.459958 0.812486
vn 0.358196 0.459958 0.812486
vn 0.577772 -0.778747 0.244402
vn 0.577772 -0.778747 0.244402
vn 0.577772 -0.778747 0.244402
vn 0.577772 -0.778747 0.244402
vn 0.000000 1.000000 0.000000
vn 0.000000 1.000000 0.000000
vn 0.000000 1.000000 0.000000
vn 0.000000 1.000000 0.000000
vn 0.403300 0.459959 -0.791067
vn 0.403300 0.459959 -0.791067
vn 0.403300 0.459959 -0.791067
vn 0.403300 0.459959 -0.791067
vn -0.573317 0.692450 -0.437974
vn -0.573317 0.692450 -0.437975
vn -0.573317 0.692450 -0.437975
vn -0.573317 0.692450 -0.437975
vn -0.175726 -0.778748 -0.602223
vn -0.175726 -0.778748 -0.602223
vn -0.175726 -0.778748 -0.602223
vn -0.175726 -0.778748 -0.602223
vn 0.000000 1.000000 0.000000
vn 0.000000 1.000000 0.000000
vn 0.000000 1.000000 0.000000
vn 0.000000 1.000000 0.000000
vn -0.860249 -0.508050 -0.043097
vn -0.860249 -0.508050 -0.043097
vn -0.860249 -0.508050 -0.043097
vn -0.860249 -0.508050 -0.043097
vn 0.860249 -0.508050 0.043097
vn 0.860249 -0.508050 0.043097
vn 0.860249 -0.508050 0.043097
vn 0.860249 -0.508050 0.043097
vn 0.573316 0.692450 0.437974
vn 0.573316 0.692450 0.437974
vn 0.573316 0.692450 0.437974
vn 0.573316 0.692450 0.437974
vn -0.403299 0.459958 0.791068
vn -0.403299 0.459958 0.791068
vn -0.403299 0.459958 0.791068
vn -0.403299 0.459958 0.791068
vn 0.175727 -0.778747 0.602223
vn 0.175727 -0.778747 0.602223
vn 0.175727 -0.778747 0.602223
vn 0.175727 -0.778747 0.602223
s off
g Floor02
usemtl initialShadingGroup
f 1/1/1 3/2/2 2/3/3 6/4/4
f 3/2/5 1/1/6 4/5/7 9/6/8
f 5/7/9 4/5/10 1/1/11 6/8/12
f 8/9/13 2/3/14 3/2/15 9/6/16
f 4/5/17 5/10/18 10/11/19 9/6/20
f 6/12/21 2/3/22 7/13/23 11/14/24
f 7/13/25 2/3/26 8/9/27 12/15/28
f 12/15/29 8/9/30 9/6/31 10/16/32
f 12/15/33 10/17/34 11/18/35 7/13/36
f 13/19/37 14/20/38 16/21/39 15/22/40
f 17/23/41 19/24/42 18/25/43 22/26/44
f 19/24/45 17/23/46 20/27/47 25/28/48
f 21/29/49 20/27/50 17/23/51 22/30/52
f 24/31/53 18/25/54 19/24/55 25/28/56
f 20/27/57 21/32/58 26/33/59 25/28/60
f 22/34/61 18/25/62 23/35/63 27/36/64
f 23/35/65 18/25/66 24/31/67 28/37/68
f 28/37/69 24/31/70 25/28/71 26/38/72
f 28/37/73 26/39/74 27/40/75 23/35/76
