# This file uses centimeters as units for non-parametric coordinates.

mtllib Floor01.mtl
g default
v 3.608794 0.204429 -2.640704
v 3.738555 0.322034 -2.529432
v 3.632272 0.354333 -2.616270
v 3.465809 0.204429 -2.562054
v 3.556327 -0.026552 -2.598012
v 3.746154 -0.026552 -2.598012
v 3.751780 0.204429 -2.434795
v 3.652979 0.352471 -2.434795
v 3.493117 0.322034 -2.434795
v 3.471434 -0.026552 -2.398837
v 3.661261 -0.026552 -2.398837
v 3.608794 0.204429 -2.356145
v 2.984922 0.102495 2.943401
v 3.257144 0.221469 3.151361
v 2.880942 0.294999 3.151361
v 2.648437 0.102495 3.151361
v 2.880942 -0.034862 3.151361
v 3.257144 -0.034862 3.151361
v 3.321408 0.102495 3.487846
v 3.088902 0.294999 3.487846
v 2.712700 0.221469 3.487846
v 2.712700 -0.034862 3.487846
v 3.088902 -0.034862 3.487846
v 2.984922 0.102495 3.695806
v 3.263633 0.102495 -3.159450
v 3.535855 0.221469 -2.951490
v 3.159653 0.294999 -2.951490
v 2.927147 0.102495 -2.951490
v 3.159653 -0.034862 -2.951490
v 3.535855 -0.034862 -2.951490
v 3.600118 0.102495 -2.615005
v 3.367613 0.294999 -2.615005
v 2.991411 0.221469 -2.615005
v 2.991411 -0.034862 -2.615005
v 3.367613 -0.034862 -2.615005
v 3.263633 0.102495 -2.407046
v -3.333589 0.284185 2.658829
v -3.153783 0.447147 2.813017
v -3.301056 0.491903 2.692688
v -3.531721 0.284185 2.767813
v -3.406291 -0.035881 2.717987
v -3.143253 -0.035881 2.717987
v -3.135458 0.284185 2.944153
v -3.272363 0.489323 2.944153
v -3.493881 0.447147 2.944153
v -3.523926 -0.035881 2.993979
v -3.260887 -0.035881 2.993979
v -3.333589 0.284185 3.053137
v -2.879170 0.102495 2.295490
v -2.606948 0.221469 2.503449
v -2.983150 0.294999 2.503449
v -3.215655 0.102495 2.503449
v -2.983150 -0.034862 2.503449
v -2.606948 -0.034862 2.503449
v -2.542684 0.102495 2.839935
v -2.775190 0.294999 2.839934
v -3.151392 0.221469 2.839935
v -3.151392 -0.034862 2.839934
v -2.775190 -0.034862 2.839934
v -2.879170 0.102495 3.047894
v -4.153015 -0.000000 4.153015
v 4.153015 -0.000000 4.153015
v -4.153015 0.000000 -4.153015
v 4.153015 0.000000 -4.153015
vt 0.953527 0.947138
vt 0.944561 0.937700
vt 0.949104 0.926723
vt 0.972641 0.900536
vt 0.938788 0.956041
vt 0.926110 0.941877
vt 0.960791 0.970044
vt 0.934988 0.926381
vt 0.920449 0.977754
vt 0.946708 0.911872
vt 0.940677 0.887499
vt 0.917464 0.925383
vt 0.891704 0.934300
vt 0.922076 0.883370
vt 0.954834 0.888108
vt 0.980573 0.943439
vt 0.977216 0.960337
vt 0.941880 0.981081
vt 0.930397 0.909386
vt 0.803025 0.962061
vt 0.815108 0.944163
vt 0.832076 0.966985
vt 0.822331 0.983976
vt 0.798169 0.930772
vt 0.824106 0.917306
vt 0.786846 0.948883
vt 0.779236 0.976671
vt 0.841075 0.940128
vt 0.783026 0.917056
vt 0.809321 0.904297
vt 0.846861 0.979994
vt 0.858014 0.953519
vt 0.873157 0.967236
vt 0.853158 0.922230
vt 0.833852 0.900315
vt 0.876947 0.907620
vt 0.869337 0.935408
vt 0.803025 0.962061
vt 0.815108 0.944163
vt 0.832076 0.966985
vt 0.822331 0.983976
vt 0.798169 0.930772
vt 0.824106 0.917306
vt 0.786846 0.948883
vt 0.779236 0.976671
vt 0.841075 0.940128
vt 0.783026 0.917056
vt 0.809321 0.904297
vt 0.846861 0.979994
vt 0.858014 0.953519
vt 0.873157 0.967236
vt 0.853158 0.922230
vt 0.833852 0.900315
vt 0.876947 0.907620
vt 0.869337 0.935408
vt 0.953527 0.947138
vt 0.944561 0.937700
vt 0.949104 0.926723
vt 0.980573 0.943439
vt 0.938788 0.956041
vt 0.926110 0.941877
vt 0.960791 0.970044
vt 0.977216 0.960337
vt 0.934988 0.926381
vt 0.941880 0.981081
vt 0.920449 0.977754
vt 0.972641 0.900536
vt 0.946708 0.911872
vt 0.954834 0.888108
vt 0.930397 0.909386
vt 0.917464 0.925383
vt 0.891704 0.934300
vt 0.922076 0.883370
vt 0.940677 0.887499
vt 0.803025 0.962061
vt 0.815108 0.944163
vt 0.832076 0.966985
vt 0.822331 0.983976
vt 0.798169 0.930772
vt 0.824106 0.917306
vt 0.786846 0.948883
vt 0.779236 0.976671
vt 0.841075 0.940128
vt 0.783026 0.917056
vt 0.809321 0.904297
vt 0.846861 0.979994
vt 0.858014 0.953519
vt 0.873157 0.967236
vt 0.853158 0.922230
vt 0.833852 0.900315
vt 0.876947 0.907620
vt 0.869337 0.935408
vt 0.009941 0.511347
vt 0.481951 0.511347
vt 0.481951 0.983358
vt 0.009941 0.983358
vn 0.573204 0.132622 -0.808609
vn 0.573204 0.132622 -0.808609
vn 0.573204 0.132622 -0.808609
vn 0.573204 0.132622 -0.808609
vn -0.626464 0.471074 -0.620993
vn -0.626464 0.471074 -0.620993
vn -0.626464 0.471074 -0.620993
vn -0.626464 0.471074 -0.620993
vn -0.228135 -0.126607 -0.965363
vn -0.228135 -0.126607 -0.965363
vn -0.228135 -0.126607 -0.965363
vn -0.228135 -0.126607 -0.965363
vn 0.003790 0.999945 0.009830
vn 0.003790 0.999945 0.009830
vn 0.003790 0.999945 0.009830
vn 0.003790 0.999945 0.009830
vn -0.984393 -0.116918 -0.131531
vn -0.984393 -0.116918 -0.131531
vn -0.984393 -0.116918 -0.131531
vn -0.984393 -0.116918 -0.131531
vn 0.972738 -0.149166 0.177570
vn 0.972738 -0.149166 0.177570
vn 0.972738 -0.149166 0.177570
vn 0.972738 -0.149166 0.177570
vn 0.588272 0.392607 0.706963
vn 0.588272 0.392607 0.706962
vn 0.588272 0.392607 0.706962
vn 0.588272 0.392607 0.706962
vn -0.353232 0.254598 0.900226
vn -0.353232 0.254598 0.900226
vn -0.353232 0.254598 0.900226
vn -0.353232 0.254598 0.900226
vn 0.228135 -0.126607 0.965363
vn 0.228135 -0.126607 0.965363
vn 0.228135 -0.126607 0.965363
vn 0.228135 -0.126607 0.965363
vn 0.403299 0.459959 -0.791067
vn 0.403299 0.459959 -0.791067
vn 0.403299 0.459959 -0.791067
vn 0.403299 0.459959 -0.791067
vn -0.573317 0.692450 -0.437974
vn -0.573317 0.692450 -0.437974
vn -0.573317 0.692450 -0.437974
vn -0.573317 0.692450 -0.437974
vn -0.175726 -0.778748 -0.602223
vn -0.175726 -0.778748 -0.602223
vn -0.175726 -0.778748 -0.602223
vn -0.175726 -0.778748 -0.602223
vn 0.000000 1.000000 0.000000
vn 0.000000 1.000000 0.000000
vn 0.000000 1.000000 0.000000
vn 0.000000 1.000000 0.000000
vn -0.860249 -0.508050 -0.043097
vn -0.860249 -0.508050 -0.043097
vn -0.860249 -0.508050 -0.043097
vn -0.860249 -0.508050 -0.043097
vn 0.860249 -0.508050 0.043097
vn 0.860249 -0.508050 0.043097
vn 0.860249 -0.508050 0.043097
vn 0.860249 -0.508050 0.043097
vn 0.573317 0.692450 0.437974
vn 0.573317 0.692450 0.437974
vn 0.573317 0.692450 0.437974
vn 0.573317 0.692450 0.437974
vn -0.403300 0.459958 0.791067
vn -0.403300 0.459958 0.791067
vn -0.403300 0.459958 0.791067
vn -0.403300 0.459958 0.791067
vn 0.175727 -0.778747 0.602223
vn 0.175727 -0.778747 0.602223
vn 0.175727 -0.778747 0.602223
vn 0.175727 -0.778747 0.602223
vn 0.403300 0.459959 -0.791067
vn 0.403300 0.459958 -0.791067
vn 0.403300 0.459958 -0.791067
vn 0.403300 0.459959 -0.791067
vn -0.573317 0.692449 -0.437974
vn -0.573317 0.692449 -0.437974
vn -0.573317 0.692449 -0.437975
vn -0.573317 0.692449 -0.437974
vn -0.175726 -0.778747 -0.602224
vn -0.175726 -0.778747 -0.602224
vn -0.175726 -0.778747 -0.602224
vn -0.175726 -0.778747 -0.602224
vn -0.000000 1.000000 0.000000
vn -0.000000 1.000000 0.000000
vn -0.000000 1.000000 0.000000
vn -0.000000 1.000000 0.000000
vn -0.860249 -0.508049 -0.043097
vn -0.860249 -0.508049 -0.043097
vn -0.860249 -0.508049 -0.043097
vn -0.860249 -0.508049 -0.043097
vn 0.860249 -0.508050 0.043097
vn 0.860249 -0.508050 0.043097
vn 0.860249 -0.508050 0.043097
vn 0.860249 -0.508050 0.043097
vn 0.573316 0.692450 0.437974
vn 0.573316 0.692450 0.437974
vn 0.573316 0.692450 0.437974
vn 0.573316 0.692450 0.437974
vn -0.403299 0.459958 0.791068
vn -0.403299 0.459958 0.791068
vn -0.403299 0.459958 0.791068
vn -0.403299 0.459958 0.791068
vn 0.175727 -0.778747 0.602224
vn 0.175727 -0.778747 0.602224
vn 0.175727 -0.778747 0.602224
vn 0.175727 -0.778747 0.602224
vn 0.573202 0.132622 -0.808610
vn 0.573202 0.132622 -0.808610
vn 0.573202 0.132622 -0.808610
vn 0.573202 0.132622 -0.808610
vn -0.626464 0.471073 -0.620994
vn -0.626464 0.471073 -0.620994
vn -0.626464 0.471073 -0.620994
vn -0.626464 0.471073 -0.620994
vn -0.228134 -0.126607 -0.965363
vn -0.228134 -0.126607 -0.965363
vn -0.228134 -0.126607 -0.965363
vn -0.228134 -0.126607 -0.965363
vn 0.003790 0.999945 0.009830
vn 0.003790 0.999945 0.009830
vn 0.003790 0.999945 0.009830
vn 0.003790 0.999945 0.009830
vn -0.984393 -0.116919 -0.131532
vn -0.984393 -0.116919 -0.131532
vn -0.984393 -0.116919 -0.131532
vn -0.984393 -0.116919 -0.131532
vn 0.972738 -0.149166 0.177569
vn 0.972738 -0.149166 0.177569
vn 0.972738 -0.149166 0.177569
vn 0.972738 -0.149166 0.177569
vn 0.588274 0.392605 0.706962
vn 0.588274 0.392605 0.706962
vn 0.588274 0.392605 0.706962
vn 0.588274 0.392605 0.706962
vn -0.353235 0.254597 0.900225
vn -0.353235 0.254597 0.900225
vn -0.353235 0.254597 0.900225
vn -0.353235 0.254597 0.900225
vn 0.228136 -0.126606 0.965362
vn 0.228136 -0.126606 0.965363
vn 0.228136 -0.126606 0.965363
vn 0.228136 -0.126606 0.965363
vn 0.403299 0.459959 -0.791068
vn 0.403299 0.459959 -0.791068
vn 0.403299 0.459959 -0.791068
vn 0.403299 0.459959 -0.791068
vn -0.573317 0.692449 -0.437975
vn -0.573317 0.692449 -0.437975
vn -0.573317 0.692449 -0.437975
vn -0.573317 0.692449 -0.437975
vn -0.175726 -0.778747 -0.602224
vn -0.175726 -0.778747 -0.602224
vn -0.175726 -0.778747 -0.602224
vn -0.175726 -0.778747 -0.602224
vn 0.000000 1.000000 0.000000
vn 0.000000 1.000000 0.000000
vn 0.000000 1.000000 0.000000
vn 0.000000 1.000000 0.000000
vn -0.860249 -0.508050 -0.043097
vn -0.860249 -0.508050 -0.043097
vn -0.860249 -0.508050 -0.043097
vn -0.860249 -0.508050 -0.043097
vn 0.860249 -0.508049 0.043097
vn 0.860249 -0.508049 0.043097
vn 0.860249 -0.508050 0.043097
vn 0.860249 -0.508049 0.043097
vn 0.573316 0.692450 0.437974
vn 0.573316 0.692450 0.437974
vn 0.573316 0.692450 0.437974
vn 0.573316 0.692450 0.437974
vn -0.403300 0.459958 0.791068
vn -0.403300 0.459958 0.791068
vn -0.403300 0.459958 0.791068
vn -0.403300 0.459958 0.791068
vn 0.175727 -0.778747 0.602224
vn 0.175727 -0.778747 0.602224
vn 0.175727 -0.778747 0.602224
vn 0.175727 -0.778747 0.602224
vn 0.000000 1.000000 0.000000
vn 0.000000 1.000000 0.000000
vn 0.000000 1.000000 0.000000
vn 0.000000 1.000000 0.000000
s off
g Floor01
usemtl initialShadingGroup
f 1/1/1 3/2/2 2/3/3 6/16/4
f 3/2/5 1/1/6 4/5/7 9/6/8
f 5/7/9 4/5/10 1/1/11 6/17/12
f 8/8/13 2/3/14 3/2/15 9/6/16
f 4/5/17 5/18/18 10/9/19 9/6/20
f 6/4/21 2/3/22 7/10/23 11/15/24
f 7/10/25 2/3/26 8/8/27 12/19/28
f 12/12/29 8/8/30 9/6/31 10/13/32
f 12/19/33 10/14/34 11/11/35 7/10/36
f 13/20/37 15/21/38 14/22/39 18/23/40
f 15/21/41 13/20/42 16/24/43 21/25/44
f 17/26/45 16/24/46 13/20/47 18/27/48
f 20/28/49 14/22/50 15/21/51 21/25/52
f 16/24/53 17/29/54 22/30/55 21/25/56
f 18/31/57 14/22/58 19/32/59 23/33/60
f 19/32/61 14/22/62 20/28/63 24/34/64
f 24/34/65 20/28/66 21/25/67 22/35/68
f 24/34/69 22/36/70 23/37/71 19/32/72
f 25/38/73 27/39/74 26/40/75 30/41/76
f 27/39/77 25/38/78 28/42/79 33/43/80
f 29/44/81 28/42/82 25/38/83 30/45/84
f 32/46/85 26/40/86 27/39/87 33/43/88
f 28/42/89 29/47/90 34/48/91 33/43/92
f 30/49/93 26/40/94 31/50/95 35/51/96
f 31/50/97 26/40/98 32/46/99 36/52/100
f 36/52/101 32/46/102 33/43/103 34/53/104
f 36/52/105 34/54/106 35/55/107 31/50/108
f 37/56/109 39/57/110 38/58/111 42/59/112
f 39/57/113 37/56/114 40/60/115 45/61/116
f 41/62/117 40/60/118 37/56/119 42/63/120
f 44/64/121 38/58/122 39/57/123 45/61/124
f 40/60/125 41/65/126 46/66/127 45/61/128
f 42/67/129 38/58/130 43/68/131 47/69/132
f 43/68/133 38/58/134 44/64/135 48/70/136
f 48/71/137 44/64/138 45/61/139 46/72/140
f 48/70/141 46/73/142 47/74/143 43/68/144
f 49/75/145 51/76/146 50/77/147 54/78/148
f 51/76/149 49/75/150 52/79/151 57/80/152
f 53/81/153 52/79/154 49/75/155 54/82/156
f 56/83/157 50/77/158 51/76/159 57/80/160
f 52/79/161 53/84/162 58/85/163 57/80/164
f 54/86/165 50/77/166 55/87/167 59/88/168
f 55/87/169 50/77/170 56/83/171 60/89/172
f 60/89/173 56/83/174 57/80/175 58/90/176
f 60/89/177 58/91/178 59/92/179 55/87/180
f 61/93/181 62/94/182 64/95/183 63/96/184
