# This file uses centimeters as units for non-parametric coordinates.

mtllib ChargingBoard.mtl
g default
v -2.810695 -0.420253 1.700746
v 2.810695 -0.420253 1.700746
v -2.810695 0.420253 1.700746
v 2.810695 0.420253 1.700746
v -2.810695 0.420253 -1.700746
v 2.810695 0.420253 -1.700746
v -2.810695 -0.420253 -1.700746
v 2.810695 -0.420253 -1.700746
vt 0.983999 0.547612
vt 0.778205 0.302925
vt 0.778205 0.547612
vt 0.958160 0.547612
vt 0.778205 0.438722
vt 0.958160 0.438722
vt 0.750231 0.438722
vt 0.958160 0.411816
vt 0.778205 0.411816
vt 0.778205 0.574519
vt 0.750231 0.547612
vt 0.983999 0.438722
vt 0.958160 0.574519
vt 0.958160 0.302925
vn 0.000000 0.000000 1.000000
vn 0.000000 0.000000 1.000000
vn 0.000000 0.000000 1.000000
vn 0.000000 0.000000 1.000000
vn 0.000000 1.000000 0.000000
vn 0.000000 1.000000 0.000000
vn 0.000000 1.000000 0.000000
vn 0.000000 1.000000 0.000000
vn 0.000000 0.000000 -1.000000
vn 0.000000 0.000000 -1.000000
vn 0.000000 0.000000 -1.000000
vn 0.000000 0.000000 -1.000000
vn 0.000000 -1.000000 0.000000
vn 0.000000 -1.000000 0.000000
vn 0.000000 -1.000000 0.000000
vn 0.000000 -1.000000 0.000000
vn 1.000000 0.000000 0.000000
vn 1.000000 0.000000 0.000000
vn 1.000000 0.000000 0.000000
vn 1.000000 0.000000 0.000000
vn -1.000000 0.000000 0.000000
vn -1.000000 0.000000 0.000000
vn -1.000000 0.000000 0.000000
vn -1.000000 0.000000 0.000000
s off
g Plate03
usemtl initialShadingGroup
f 1/13/1 2/10/2 4/3/3 3/4/4
f 3/4/5 4/3/6 6/5/7 5/6/8
f 5/6/9 6/5/10 8/9/11 7/8/12
f 7/8/13 8/9/14 2/2/15 1/14/16
f 2/11/17 8/7/18 6/5/19 4/3/20
f 7/12/21 1/1/22 3/4/23 5/6/24
