# This file uses centimeters as units for non-parametric coordinates.

mtllib Crate.mtl
g default
v -1.842157 -1.842157 1.842157
v -1.432790 -1.842157 1.842157
v 1.432790 -1.842157 1.842157
v 1.842157 -1.842157 1.842157
v -1.842157 -1.432789 1.842157
v -1.432790 -1.432789 1.842157
v 1.432790 -1.432789 1.842157
v 1.842157 -1.432789 1.842157
v -1.842157 1.432789 1.842157
v -1.432790 1.432789 1.842157
v 1.432790 1.432789 1.842157
v 1.842157 1.432789 1.842157
v -1.842157 1.842157 1.842157
v -1.432790 1.842157 1.842157
v 1.432790 1.842157 1.842157
v 1.842157 1.842157 1.842157
v -1.842157 1.842157 1.432789
v -1.432790 1.842157 1.432789
v 1.432790 1.842157 1.432789
v 1.842157 1.842157 1.432789
v -1.842157 1.842157 -1.432789
v -1.432790 1.842157 -1.432789
v 1.432790 1.842157 -1.432789
v 1.842157 1.842157 -1.432789
v -1.842157 1.842157 -1.842157
v -1.432790 1.842157 -1.842157
v 1.432790 1.842157 -1.842157
v 1.842157 1.842157 -1.842157
v -1.842157 1.432789 -1.842157
v -1.432790 1.432789 -1.842157
v 1.432790 1.432789 -1.842157
v 1.842157 1.432789 -1.842157
v -1.842157 -1.432789 -1.842157
v -1.432790 -1.432789 -1.842157
v 1.432790 -1.432789 -1.842157
v 1.842157 -1.432789 -1.842157
v -1.842157 -1.842157 -1.842157
v -1.432790 -1.842157 -1.842157
v 1.432790 -1.842157 -1.842157
v 1.842157 -1.842157 -1.842157
v -1.842157 -1.842157 -1.432789
v -1.432790 -1.842157 -1.432789
v 1.432790 -1.842157 -1.432789
v 1.842157 -1.842157 -1.432789
v -1.842157 -1.842157 1.432789
v -1.432790 -1.842157 1.432789
v 1.432790 -1.842157 1.432789
v 1.842157 -1.842157 1.432789
v 1.842157 -1.432789 -1.432789
v 1.842157 -1.432789 1.432789
v 1.842157 1.432789 -1.432789
v 1.842157 1.432789 1.432789
v -1.842157 -1.432789 -1.432789
v -1.842157 -1.432789 1.432789
v -1.842157 1.432789 -1.432789
v -1.842157 1.432789 1.432789
v 1.432790 -1.432789 1.572211
v 1.432790 1.432789 1.572211
v -1.432790 1.432789 1.572211
v -1.432790 -1.432789 1.572211
v 1.432790 1.572211 1.432789
v 1.432790 1.572211 -1.432789
v -1.432790 1.572211 -1.432789
v -1.432790 1.572211 1.432789
v 1.432790 1.432789 -1.572211
v 1.432790 -1.432789 -1.572211
v -1.432790 -1.432789 -1.572211
v -1.432790 1.432789 -1.572211
v 1.432790 -1.572211 -1.432789
v 1.432790 -1.572211 1.432789
v -1.432790 -1.572211 1.432789
v -1.432790 -1.572211 -1.432789
v 1.572211 -1.432789 1.432789
v 1.572211 1.432789 1.432789
v 1.572211 -1.432789 -1.432789
v 1.572211 1.432789 -1.432789
v -1.572211 -1.432789 -1.432789
v -1.572211 1.432789 -1.432789
v -1.572211 -1.432789 1.432789
v -1.572211 1.432789 1.432789
vt 0.513678 0.850878
vt 0.527417 0.850878
vt 0.527417 0.864618
vt 0.513678 0.864618
vt 0.623592 0.850878
vt 0.623592 0.864618
vt 0.637331 0.850878
vt 0.637331 0.864618
vt 0.527417 0.960792
vt 0.513678 0.960792
vt 0.623592 0.864618
vt 0.623592 0.960792
vt 0.527417 0.960792
vt 0.527417 0.864618
vt 0.637331 0.960792
vt 0.623592 0.960792
vt 0.527417 0.974532
vt 0.513678 0.974532
vt 0.623592 0.974532
vt 0.637331 0.974532
vt 0.527417 0.974532
vt 0.513678 0.974532
vt 0.623592 0.974532
vt 0.637331 0.974532
vt 0.527417 0.974532
vt 0.513678 0.974532
vt 0.623592 0.965472
vt 0.623592 0.965472
vt 0.527417 0.965472
vt 0.527417 0.965472
vt 0.637331 0.974532
vt 0.623592 0.974532
vt 0.527417 0.974532
vt 0.513678 0.974532
vt 0.623592 0.974532
vt 0.637331 0.974532
vt 0.527417 0.960792
vt 0.513678 0.960792
vt 0.623592 0.960792
vt 0.637331 0.960792
vt 0.527417 0.864618
vt 0.513678 0.864618
vt 0.623592 0.960792
vt 0.623592 0.864618
vt 0.527417 0.864618
vt 0.527417 0.960792
vt 0.637331 0.864618
vt 0.623592 0.864618
vt 0.527417 0.850878
vt 0.513678 0.850878
vt 0.623592 0.850878
vt 0.637331 0.850878
vt 0.527417 0.850878
vt 0.513678 0.850878
vt 0.623592 0.850878
vt 0.637331 0.850878
vt 0.527417 0.850878
vt 0.513678 0.850878
vt 0.623592 0.859938
vt 0.623592 0.859938
vt 0.527417 0.859938
vt 0.527417 0.859938
vt 0.637331 0.850878
vt 0.623592 0.850878
vt 0.637331 0.864618
vt 0.637331 0.864618
vt 0.637331 0.960792
vt 0.628271 0.960792
vt 0.628271 0.864618
vt 0.628271 0.864618
vt 0.628271 0.960792
vt 0.637331 0.960792
vt 0.513678 0.864618
vt 0.513678 0.864618
vt 0.513678 0.960792
vt 0.522738 0.960792
vt 0.522738 0.864618
vt 0.522738 0.864618
vt 0.522738 0.960792
vt 0.513678 0.960792
vn 0.000000 0.000000 1.000000
vn 0.000000 0.000000 1.000000
vn 0.000000 0.000000 1.000000
vn 0.000000 0.000000 1.000000
vn 0.000000 0.000000 1.000000
vn 0.000000 0.000000 1.000000
vn 0.000000 0.000000 1.000000
vn 0.000000 0.000000 1.000000
vn 0.000000 0.000000 1.000000
vn 0.000000 0.000000 1.000000
vn 0.000000 0.000000 1.000000
vn 0.000000 0.000000 1.000000
vn 0.000000 0.000000 1.000000
vn 0.000000 0.000000 1.000000
vn 0.000000 0.000000 1.000000
vn 0.000000 0.000000 1.000000
vn 0.000000 0.000000 1.000000
vn 0.000000 0.000000 1.000000
vn 0.000000 0.000000 1.000000
vn 0.000000 0.000000 1.000000
vn 0.000000 1.000000 0.000000
vn 0.000000 1.000000 0.000000
vn 0.000000 1.000000 0.000000
vn 0.000000 1.000000 0.000000
vn 0.000000 1.000000 0.000000
vn 0.000000 1.000000 0.000000
vn 0.000000 1.000000 0.000000
vn 0.000000 1.000000 0.000000
vn 0.000000 1.000000 0.000000
vn 0.000000 1.000000 0.000000
vn 0.000000 1.000000 0.000000
vn 0.000000 1.000000 0.000000
vn 0.000000 1.000000 0.000000
vn 0.000000 1.000000 0.000000
vn 0.000000 1.000000 0.000000
vn 0.000000 1.000000 0.000000
vn 0.000000 1.000000 0.000000
vn 0.000000 1.000000 0.000000
vn 0.000000 1.000000 0.000000
vn 0.000000 1.000000 0.000000
vn 0.000000 0.000000 -1.000000
vn 0.000000 0.000000 -1.000000
vn 0.000000 0.000000 -1.000000
vn 0.000000 0.000000 -1.000000
vn 0.000000 0.000000 -1.000000
vn 0.000000 0.000000 -1.000000
vn 0.000000 0.000000 -1.000000
vn 0.000000 0.000000 -1.000000
vn 0.000000 0.000000 -1.000000
vn 0.000000 0.000000 -1.000000
vn 0.000000 0.000000 -1.000000
vn 0.000000 0.000000 -1.000000
vn 0.000000 0.000000 -1.000000
vn 0.000000 0.000000 -1.000000
vn 0.000000 0.000000 -1.000000
vn 0.000000 0.000000 -1.000000
vn 0.000000 0.000000 -1.000000
vn 0.000000 0.000000 -1.000000
vn 0.000000 0.000000 -1.000000
vn 0.000000 0.000000 -1.000000
vn 0.000000 -1.000000 0.000000
vn 0.000000 -1.000000 0.000000
vn 0.000000 -1.000000 0.000000
vn 0.000000 -1.000000 0.000000
vn 0.000000 -1.000000 0.000000
vn 0.000000 -1.000000 0.000000
vn 0.000000 -1.000000 0.000000
vn 0.000000 -1.000000 0.000000
vn 0.000000 -1.000000 0.000000
vn 0.000000 -1.000000 0.000000
vn 0.000000 -1.000000 0.000000
vn 0.000000 -1.000000 0.000000
vn 0.000000 -1.000000 0.000000
vn 0.000000 -1.000000 0.000000
vn 0.000000 -1.000000 0.000000
vn 0.000000 -1.000000 0.000000
vn 0.000000 -1.000000 0.000000
vn 0.000000 -1.000000 0.000000
vn 0.000000 -1.000000 0.000000
vn 0.000000 -1.000000 0.000000
vn 1.000000 0.000000 0.000000
vn 1.000000 0.000000 0.000000
vn 1.000000 0.000000 0.000000
vn 1.000000 0.000000 0.000000
vn 1.000000 0.000000 0.000000
vn 1.000000 0.000000 0.000000
vn 1.000000 0.000000 0.000000
vn 1.000000 0.000000 0.000000
vn 1.000000 0.000000 0.000000
vn 1.000000 -0.000000 0.000000
vn 1.000000 0.000000 0.000000
vn 1.000000 0.000000 0.000000
vn 1.000000 0.000000 0.000000
vn 1.000000 0.000000 0.000000
vn 1.000000 -0.000000 0.000000
vn 1.000000 -0.000000 0.000000
vn 1.000000 0.000000 0.000000
vn 1.000000 -0.000000 0.000000
vn 1.000000 -0.000000 0.000000
vn 1.000000 -0.000000 0.000000
vn -1.000000 0.000000 0.000000
vn -1.000000 0.000000 0.000000
vn -1.000000 0.000000 0.000000
vn -1.000000 0.000000 0.000000
vn -1.000000 0.000000 0.000000
vn -1.000000 0.000000 0.000000
vn -1.000000 0.000000 0.000000
vn -1.000000 0.000000 0.000000
vn -1.000000 0.000000 0.000000
vn -1.000000 0.000000 0.000000
vn -1.000000 0.000000 0.000000
vn -1.000000 0.000000 0.000000
vn -1.000000 0.000000 0.000000
vn -1.000000 0.000000 0.000000
vn -1.000000 -0.000000 0.000000
vn -1.000000 0.000000 0.000000
vn -1.000000 0.000000 0.000000
vn -1.000000 0.000000 0.000000
vn -1.000000 0.000000 0.000000
vn -1.000000 -0.000000 0.000000
vn -1.000000 0.000000 0.000000
vn -1.000000 0.000000 0.000000
vn -1.000000 0.000000 0.000000
vn -1.000000 0.000000 0.000000
vn 0.000000 -1.000000 0.000000
vn 0.000000 -1.000000 0.000000
vn 0.000000 -1.000000 0.000000
vn 0.000000 -1.000000 0.000000
vn 1.000000 0.000000 0.000000
vn 1.000000 0.000000 0.000000
vn 1.000000 0.000000 0.000000
vn 1.000000 0.000000 0.000000
vn 0.000000 1.000000 0.000000
vn 0.000000 1.000000 0.000000
vn 0.000000 1.000000 0.000000
vn 0.000000 1.000000 0.000000
vn -1.000000 0.000000 0.000000
vn -1.000000 0.000000 0.000000
vn -1.000000 0.000000 0.000000
vn -1.000000 0.000000 0.000000
vn 0.000000 0.000000 1.000000
vn 0.000000 0.000000 1.000000
vn 0.000000 0.000000 1.000000
vn 0.000000 0.000000 1.000000
vn 1.000000 0.000000 0.000000
vn 1.000000 0.000000 0.000000
vn 1.000000 0.000000 0.000000
vn 1.000000 0.000000 0.000000
vn 0.000000 0.000000 -1.000000
vn 0.000000 0.000000 -1.000000
vn 0.000000 0.000000 -1.000000
vn 0.000000 0.000000 -1.000000
vn -1.000000 0.000000 0.000000
vn -1.000000 0.000000 0.000000
vn -1.000000 0.000000 0.000000
vn -1.000000 0.000000 0.000000
vn 0.000000 1.000000 0.000000
vn 0.000000 1.000000 0.000000
vn 0.000000 1.000000 0.000000
vn 0.000000 1.000000 0.000000
vn 1.000000 0.000000 0.000000
vn 1.000000 0.000000 0.000000
vn 1.000000 0.000000 0.000000
vn 1.000000 0.000000 0.000000
vn 0.000000 -1.000000 0.000000
vn 0.000000 -1.000000 0.000000
vn 0.000000 -1.000000 0.000000
vn 0.000000 -1.000000 0.000000
vn -1.000000 0.000000 0.000000
vn -1.000000 0.000000 0.000000
vn -1.000000 0.000000 0.000000
vn -1.000000 0.000000 0.000000
vn 0.000000 0.000000 -1.000000
vn 0.000000 0.000000 -1.000000
vn 0.000000 0.000000 -1.000000
vn 0.000000 0.000000 -1.000000
vn 1.000000 0.000000 0.000000
vn 1.000000 0.000000 0.000000
vn 1.000000 0.000000 0.000000
vn 1.000000 0.000000 0.000000
vn 0.000000 0.000000 1.000000
vn 0.000000 0.000000 1.000000
vn 0.000000 0.000000 1.000000
vn 0.000000 0.000000 1.000000
vn 0.000000 0.000000 -1.000000
vn 0.000000 0.000000 -1.000000
vn 0.000000 0.000000 -1.000000
vn 0.000000 0.000000 -1.000000
vn 0.000000 1.000000 0.000000
vn 0.000000 1.000000 0.000000
vn 0.000000 1.000000 0.000000
vn 0.000000 1.000000 0.000000
vn 0.000000 0.000000 1.000000
vn 0.000000 0.000000 1.000000
vn 0.000000 0.000000 1.000000
vn 0.000000 0.000000 1.000000
vn 0.000000 -1.000000 0.000000
vn 0.000000 -1.000000 0.000000
vn 0.000000 -1.000000 0.000000
vn 0.000000 -1.000000 0.000000
vn 0.000000 0.000000 1.000000
vn 0.000000 0.000000 1.000000
vn 0.000000 0.000000 1.000000
vn 0.000000 0.000000 1.000000
vn 0.000000 1.000000 0.000000
vn 0.000000 1.000000 0.000000
vn 0.000000 1.000000 0.000000
vn 0.000000 1.000000 0.000000
vn 0.000000 0.000000 -1.000000
vn 0.000000 0.000000 -1.000000
vn 0.000000 0.000000 -1.000000
vn 0.000000 0.000000 -1.000000
vn 0.000000 -1.000000 0.000000
vn 0.000000 -1.000000 0.000000
vn 0.000000 -1.000000 0.000000
vn 0.000000 -1.000000 0.000000
s 1
g Crate
usemtl initialShadingGroup
f 1/1/1 2/2/2 6/3/3 5/4/4
f 6/3/3 2/2/2 3/5/5 7/6/6
f 3/5/5 4/7/7 8/8/8 7/6/6
f 6/3/3 10/9/9 9/10/10 5/4/4
s off
f 57/11/11 58/12/12 59/13/13 60/14/14
s 1
f 12/15/15 11/16/16 7/6/6 8/8/8
f 9/10/10 10/9/9 14/17/17 13/18/18
f 14/17/17 10/9/9 11/16/16 15/19/19
f 11/16/16 12/15/15 16/20/20 15/19/19
s 2
f 13/18/21 14/17/22 18/21/23 17/22/24
f 18/21/23 14/17/22 15/19/25 19/23/26
f 15/19/25 16/20/27 20/24/28 19/23/26
f 18/21/23 22/25/29 21/26/30 17/22/24
s off
f 61/27/31 62/28/32 63/29/33 64/30/34
s 2
f 24/31/35 23/32/36 19/23/26 20/24/28
f 21/26/30 22/25/29 26/33/37 25/34/38
f 26/33/37 22/25/29 23/32/36 27/35/39
f 23/32/36 24/31/35 28/36/40 27/35/39
s 3
f 25/34/41 26/33/42 30/37/43 29/38/44
f 30/37/43 26/33/42 27/35/45 31/39/46
f 27/35/45 28/36/47 32/40/48 31/39/46
f 30/37/43 34/41/49 33/42/50 29/38/44
s off
f 65/43/51 66/44/52 67/45/53 68/46/54
s 3
f 36/47/55 35/48/56 31/39/46 32/40/48
f 33/42/50 34/41/49 38/49/57 37/50/58
f 38/49/57 34/41/49 35/48/56 39/51/59
f 35/48/56 36/47/55 40/52/60 39/51/59
s 4
f 37/50/61 38/49/62 42/53/63 41/54/64
f 42/53/63 38/49/62 39/51/65 43/55/66
f 39/51/65 40/52/67 44/56/68 43/55/66
f 42/53/63 46/57/69 45/58/70 41/54/64
s off
f 69/59/71 70/60/72 71/61/73 72/62/74
s 4
f 48/63/75 47/64/76 43/55/66 44/56/68
f 45/58/70 46/57/69 2/2/77 1/1/78
f 3/5/79 2/2/77 46/57/69 47/64/76
f 47/64/76 48/63/75 4/7/80 3/5/79
s 5
f 44/56/81 40/52/82 36/47/83 49/65/84
f 50/66/85 48/63/86 44/56/81 49/65/84
f 4/7/87 48/63/86 50/66/85 8/8/88
f 49/65/84 36/47/83 32/40/89 51/67/90
s off
f 74/68/91 73/69/92 75/70/93 76/71/94
s 5
f 12/15/95 8/8/88 50/66/85 52/72/96
f 51/67/90 32/40/89 28/36/97 24/31/98
f 24/31/98 20/24/99 52/72/96 51/67/90
f 12/15/95 52/72/96 20/24/99 16/20/100
s 6
f 37/50/101 41/54/102 53/73/103 33/42/104
f 53/73/103 41/54/102 45/58/105 54/74/106
f 45/58/105 1/1/107 5/4/108 54/74/106
f 53/73/103 55/75/109 29/38/110 33/42/104
s off
f 78/76/111 77/77/112 79/78/113 80/79/114
s 6
f 5/4/108 9/10/115 56/80/116 54/74/106
f 29/38/110 55/75/109 21/26/117 25/34/118
f 17/22/119 21/26/117 55/75/109 56/80/116
f 56/80/116 9/10/115 13/18/120 17/22/119
s off
f 7/6/121 11/16/122 58/12/123 57/11/124
f 11/16/125 10/9/126 59/13/127 58/12/128
f 10/9/129 6/3/130 60/14/131 59/13/132
f 6/3/133 7/6/134 57/11/135 60/14/136
f 19/23/137 23/32/138 62/28/139 61/27/140
f 23/32/141 22/25/142 63/29/143 62/28/144
f 22/25/145 18/21/146 64/30/147 63/29/148
f 18/21/149 19/23/150 61/27/151 64/30/152
f 31/39/153 35/48/154 66/44/155 65/43/156
f 35/48/157 34/41/158 67/45/159 66/44/160
f 34/41/161 30/37/162 68/46/163 67/45/164
f 30/37/165 31/39/166 65/43/167 68/46/168
f 43/55/169 47/64/170 70/60/171 69/59/172
f 47/64/173 46/57/174 71/61/175 70/60/176
f 46/57/177 42/53/178 72/62/179 71/61/180
f 42/53/181 43/55/182 69/59/183 72/62/184
f 52/72/185 50/66/186 73/69/187 74/68/188
f 50/66/189 49/65/190 75/70/191 73/69/192
f 49/65/193 51/67/194 76/71/195 75/70/196
f 51/67/197 52/72/198 74/68/199 76/71/200
f 55/75/201 53/73/202 77/77/203 78/76/204
f 53/73/205 54/74/206 79/78/207 77/77/208
f 54/74/209 56/80/210 80/79/211 79/78/212
f 56/80/213 55/75/214 78/76/215 80/79/216
