# This file uses centimeters as units for non-parametric coordinates.

mtllib Door.mtl
g default
v -2.275231 -1.597879 0.074027
v -2.275231 -1.518801 0.219068
v -2.275231 -1.360646 0.219068
v -2.275231 -1.281568 0.074027
v -2.354436 -1.676957 0.074027
v -2.354436 -1.558340 0.258670
v -2.354436 -1.321107 0.258670
v -2.354436 -1.202491 0.074027
v -2.354436 -1.835112 0.074027
v -2.354436 -1.637418 0.337874
v -2.354436 -1.242029 0.337874
v -2.354436 -1.044335 0.074027
v -2.275231 -1.914190 0.074027
v -2.275231 -1.676957 0.377476
v -2.275231 -1.202491 0.377476
v -2.275231 -0.965257 0.074027
v -2.196027 -1.835112 0.074027
v -2.196027 -1.637418 0.337874
v -2.196027 -1.242030 0.337874
v -2.196027 -1.044335 0.074027
v -2.196027 -1.676957 0.074027
v -2.196027 -1.558340 0.258670
v -2.196027 -1.321107 0.258670
v -2.196027 -1.202491 0.074027
v -4.153015 -4.153015 -0.106860
v -2.762010 -4.153015 -0.106860
v -2.762010 2.557620 -0.106860
v 2.762010 2.557620 -0.106860
v 2.762010 -4.153015 -0.106860
v 4.153015 -4.153015 -0.106860
v 4.153015 4.153015 -0.106860
v -4.153015 4.153015 -0.106860
v -1.892922 -4.034389 -0.024344
v -1.352214 -4.034389 -0.024344
v 1.941301 2.438993 -0.024344
v 2.482009 2.438993 -0.024344
v 1.941301 2.438993 -0.121803
v 2.482009 2.438993 -0.121803
v -1.892922 -4.034389 -0.121803
v -1.352214 -4.034389 -0.121803
v -2.762010 -4.153015 0.109191
v 2.762010 -4.153015 0.109191
v -2.762010 2.557620 0.109191
v 2.762010 2.557620 0.109191
v -2.762010 2.557620 -0.377476
v 2.762010 2.557620 -0.377476
v -2.762010 -4.153015 -0.377476
v 2.762010 -4.153015 -0.377476
v -1.860024 -3.930774 0.109191
v 2.552312 -3.930774 0.109191
v 2.552312 2.335379 0.109191
v -1.860024 2.335379 0.109191
v -1.860024 -3.930774 -0.115137
v 2.552312 -3.930774 -0.115137
v 2.552312 2.335379 -0.115137
v -1.860024 2.335379 -0.115137
v 1.961970 -4.034389 -0.024344
v 2.502678 -4.034389 -0.024344
v -1.820577 2.438993 -0.024344
v -1.279869 2.438993 -0.024344
v -1.820577 2.438993 -0.121803
v -1.279869 2.438993 -0.121803
v 1.961970 -4.034389 -0.121803
v 2.502678 -4.034389 -0.121803
vt 0.955679 0.649980
vt 0.957681 0.641003
vt 0.948249 0.631593
vt 0.945596 0.645104
vt 0.955731 0.668961
vt 0.945678 0.673643
vt 0.957783 0.678634
vt 0.948408 0.688037
vt 0.948195 0.612760
vt 0.944395 0.635276
vt 0.944532 0.683071
vt 0.948461 0.706833
vt 0.957579 0.603335
vt 0.953371 0.630321
vt 0.953530 0.687818
vt 0.957884 0.716229
vt 0.967015 0.612751
vt 0.963511 0.635269
vt 0.963637 0.683069
vt 0.967258 0.706834
vt 0.967064 0.631586
vt 0.964618 0.645099
vt 0.964693 0.673640
vt 0.967209 0.688036
vt 0.009941 0.490840
vt 0.089584 0.400906
vt 0.406231 0.400906
vt 0.481951 0.490840
vt 0.406231 0.019705
vt 0.481951 0.019705
vt 0.009941 0.019705
vt 0.089584 0.019705
vt 0.807473 0.603226
vt 0.826272 0.603192
vt 0.958915 0.827612
vt 0.940211 0.827571
vt 0.826477 0.603785
vt 0.958353 0.826905
vt 0.807788 0.603820
vt 0.939758 0.826865
vt 0.533411 0.632482
vt 0.670182 0.632240
vt 0.669281 0.825700
vt 0.533805 0.825412
vt 0.505227 0.833630
vt 0.676987 0.834025
vt 0.674247 0.830787
vt 0.507358 0.830414
vt 0.675248 0.626762
vt 0.506677 0.627079
vt 0.678046 0.624009
vt 0.504504 0.624344
vt 0.671402 0.631046
vt 0.532772 0.631294
vt 0.670477 0.827125
vt 0.533177 0.826828
vt 0.860550 0.603227
vt 0.841656 0.603192
vt 0.973293 0.827612
vt 0.991913 0.827571
vt 0.842234 0.603788
vt 0.973106 0.826909
vt 0.861017 0.603823
vt 0.991618 0.826868
vn -0.610471 0.679272 -0.407325
vn -0.610471 0.679273 -0.407325
vn -0.610471 0.679272 -0.407325
vn -0.610471 0.679272 -0.407325
vn -0.447213 0.000000 -0.894428
vn -0.447213 0.000000 -0.894428
vn -0.447213 0.000000 -0.894428
vn -0.447213 0.000000 -0.894428
vn -0.610471 -0.679272 -0.407326
vn -0.610471 -0.679272 -0.407326
vn -0.610471 -0.679272 -0.407326
vn -0.610471 -0.679272 -0.407325
vn -1.000000 0.000000 0.000000
vn -1.000000 0.000000 0.000000
vn -1.000000 0.000000 0.000000
vn -1.000000 0.000000 0.000000
vn -1.000000 0.000000 0.000000
vn -1.000000 0.000000 0.000000
vn -1.000000 0.000000 0.000000
vn -1.000000 0.000000 0.000000
vn -1.000000 -0.000002 0.000000
vn -1.000000 -0.000002 0.000000
vn -1.000000 -0.000002 0.000000
vn -1.000000 -0.000002 0.000000
vn -0.598132 -0.635994 0.487596
vn -0.598132 -0.635994 0.487596
vn -0.598132 -0.635994 0.487596
vn -0.598132 -0.635994 0.487596
vn -0.447213 0.000000 0.894428
vn -0.447213 0.000000 0.894428
vn -0.447213 0.000000 0.894428
vn -0.447213 0.000000 0.894428
vn -0.598132 0.635994 0.487596
vn -0.598132 0.635994 0.487596
vn -0.598132 0.635994 0.487596
vn -0.598132 0.635994 0.487596
vn 0.598132 -0.635994 0.487595
vn 0.598132 -0.635994 0.487595
vn 0.598132 -0.635994 0.487595
vn 0.598132 -0.635994 0.487595
vn 0.447214 0.000000 0.894427
vn 0.447214 0.000000 0.894427
vn 0.447214 0.000000 0.894427
vn 0.447214 0.000000 0.894427
vn 0.598133 0.635994 0.487595
vn 0.598133 0.635994 0.487595
vn 0.598133 0.635994 0.487595
vn 0.598133 0.635994 0.487595
vn 1.000000 0.000002 0.000000
vn 1.000000 0.000002 0.000000
vn 1.000000 0.000002 0.000000
vn 1.000000 0.000002 0.000000
vn 1.000000 0.000000 0.000000
vn 1.000000 0.000000 0.000000
vn 1.000000 0.000000 0.000000
vn 1.000000 0.000000 0.000000
vn 1.000000 0.000001 0.000000
vn 1.000000 0.000001 0.000000
vn 1.000000 0.000001 0.000000
vn 1.000000 0.000001 0.000000
vn 0.610473 0.679271 -0.407326
vn 0.610473 0.679271 -0.407326
vn 0.610473 0.679271 -0.407326
vn 0.610473 0.679271 -0.407326
vn 0.447214 0.000000 -0.894427
vn 0.447214 0.000000 -0.894427
vn 0.447214 0.000000 -0.894427
vn 0.447214 0.000000 -0.894427
vn 0.610472 -0.679272 -0.407325
vn 0.610472 -0.679272 -0.407325
vn 0.610472 -0.679272 -0.407325
vn 0.610472 -0.679272 -0.407325
vn 0.000000 0.000000 1.000000
vn 0.000000 0.000000 1.000000
vn 0.000000 0.000000 1.000000
vn 0.000000 0.000000 1.000000
vn 0.000000 0.000000 1.000000
vn 0.000000 0.000000 1.000000
vn 0.000000 0.000000 1.000000
vn 0.000000 0.000000 1.000000
vn 0.000000 0.000000 1.000000
vn 0.000000 0.000000 1.000000
vn 0.000000 0.000000 1.000000
vn 0.000000 0.000000 1.000000
vn 0.860400 -0.509620 0.000000
vn 0.860400 -0.509620 0.000000
vn 0.860400 -0.509620 0.000000
vn 0.860400 -0.509620 0.000000
vn -0.860400 0.509620 0.000000
vn -0.860400 0.509620 0.000000
vn -0.860400 0.509620 0.000000
vn -0.860400 0.509620 0.000000
vn 0.000000 0.000000 1.000000
vn 0.000000 0.000000 1.000000
vn 0.000000 0.000000 1.000000
vn 0.000000 0.000000 1.000000
vn 0.000000 1.000000 0.000000
vn 0.000000 1.000000 0.000000
vn 0.000000 1.000000 0.000000
vn 0.000000 1.000000 0.000000
vn 0.000000 0.000000 -1.000000
vn 0.000000 0.000000 -1.000000
vn 0.000000 0.000000 -1.000000
vn 0.000000 0.000000 -1.000000
vn 1.000000 0.000000 0.000000
vn 1.000000 0.000000 0.000000
vn 1.000000 0.000000 0.000000
vn 1.000000 0.000000 0.000000
vn -1.000000 0.000000 0.000000
vn -1.000000 0.000000 0.000000
vn -1.000000 0.000000 0.000000
vn -1.000000 0.000000 0.000000
vn 0.000000 0.000000 1.000000
vn 0.000000 0.000000 1.000000
vn 0.000000 0.000000 1.000000
vn 0.000000 0.000000 1.000000
vn 0.000000 0.000000 1.000000
vn 0.000000 0.000000 1.000000
vn 0.000000 0.000000 1.000000
vn 0.000000 0.000000 1.000000
vn 0.000000 1.000000 0.000000
vn 0.000000 1.000000 0.000000
vn 0.000000 1.000000 0.000000
vn 0.000000 1.000000 0.000000
vn -1.000000 0.000000 0.000000
vn -1.000000 0.000000 0.000000
vn -1.000000 0.000000 0.000000
vn -1.000000 0.000000 0.000000
vn 0.000000 -1.000000 0.000000
vn 0.000000 -1.000000 0.000000
vn 0.000000 -1.000000 0.000000
vn 0.000000 -1.000000 0.000000
vn 1.000000 0.000000 0.000000
vn 1.000000 0.000000 0.000000
vn 1.000000 0.000000 0.000000
vn 1.000000 0.000000 0.000000
vn 0.000000 0.000000 1.000000
vn 0.000000 0.000000 1.000000
vn 0.000000 0.000000 1.000000
vn 0.000000 0.000000 1.000000
vn 0.863407 0.504508 0.000000
vn 0.863407 0.504508 0.000000
vn 0.863407 0.504508 0.000000
vn 0.863407 0.504508 0.000000
vn -0.863407 -0.504508 0.000000
vn -0.863407 -0.504508 0.000000
vn -0.863407 -0.504508 0.000000
vn -0.863407 -0.504508 0.000000
s off
g DoorWall
usemtl initialShadingGroup
f 2/1/1 1/2/2 5/3/3 6/4/4
f 3/5/5 2/1/6 6/4/7 7/6/8
f 4/7/9 3/5/10 7/6/11 8/8/12
f 6/4/13 5/3/14 9/9/15 10/10/16
f 7/6/17 6/4/18 10/10/19 11/11/20
f 8/8/21 7/6/22 11/11/23 12/12/24
f 10/10/25 9/9/26 13/13/27 14/14/28
f 11/11/29 10/10/30 14/14/31 15/15/32
f 12/12/33 11/11/34 15/15/35 16/16/36
f 14/14/37 13/13/38 17/17/39 18/18/40
f 15/15/41 14/14/42 18/18/43 19/19/44
f 16/16/45 15/15/46 19/19/47 20/20/48
f 18/18/49 17/17/50 21/21/51 22/22/52
f 19/19/53 18/18/54 22/22/55 23/23/56
f 20/20/57 19/19/58 23/23/59 24/24/60
f 22/22/61 21/21/62 1/2/63 2/1/64
f 23/23/65 22/22/66 2/1/67 3/5/68
f 24/24/69 23/23/70 3/5/71 4/7/72
s 1
f 32/25/73 27/26/74 28/27/75 31/28/76
f 31/28/76 28/27/75 29/29/77 30/30/78
f 25/31/79 26/32/80 27/26/74 32/25/73
s off
f 33/33/81 34/34/82 36/35/83 35/36/84
f 34/34/85 40/37/86 38/38/87 36/35/88
f 39/39/89 33/33/90 35/36/91 37/40/92
f 53/41/93 54/42/94 55/43/95 56/44/96
f 43/45/97 44/46/98 46/47/99 45/48/100
f 45/48/101 46/47/102 48/49/103 47/50/104
f 42/51/105 48/49/106 46/47/107 44/46/108
f 47/50/109 41/52/110 43/45/111 45/48/112
s 2
f 41/52/113 42/51/114 50/53/115 49/54/116
f 42/51/114 44/46/117 51/55/118 50/53/115
f 44/46/117 43/45/119 52/56/120 51/55/118
f 43/45/119 41/52/113 49/54/116 52/56/120
s off
f 49/54/121 50/53/122 54/42/123 53/41/124
f 50/53/125 51/55/126 55/43/127 54/42/128
f 51/55/129 52/56/130 56/44/131 55/43/132
f 52/56/133 49/54/134 53/41/135 56/44/136
f 57/57/137 58/58/138 60/59/139 59/60/140
f 58/58/141 64/61/142 62/62/143 60/59/144
f 63/63/145 57/57/146 59/60/147 61/64/148
