# This file uses centimeters as units for non-parametric coordinates.

mtllib MineCart.mtl
g default
v -1.121489 -0.963892 -1.983270
v -1.580806 -0.773638 -1.983270
v -2.040121 -0.963892 -1.983270
v -2.230377 -1.423208 -1.983270
v -2.040121 -1.882523 -1.983270
v -1.580806 -2.072778 -1.983270
v -1.121489 -1.882523 -1.983270
v -0.931236 -1.423208 -1.983270
v -1.121489 -0.963892 -1.520383
v -1.580806 -0.773638 -1.520383
v -2.040121 -0.963892 -1.520383
v -2.230377 -1.423208 -1.520383
v -2.040121 -1.882523 -1.520383
v -1.580806 -2.072778 -1.520383
v -1.121489 -1.882523 -1.520383
v -0.931236 -1.423208 -1.520383
v -1.580806 -1.423208 -1.983270
v -1.580806 -1.423208 -1.520383
v 2.013775 -0.963892 -1.983270
v 1.554460 -0.773638 -1.983270
v 1.095142 -0.963892 -1.983270
v 0.904890 -1.423208 -1.983270
v 1.095142 -1.882523 -1.983270
v 1.554460 -2.072778 -1.983270
v 2.013775 -1.882523 -1.983270
v 2.204031 -1.423208 -1.983270
v 2.013775 -0.963892 -1.520383
v 1.554460 -0.773638 -1.520383
v 1.095142 -0.963892 -1.520383
v 0.904890 -1.423208 -1.520383
v 1.095142 -1.882523 -1.520383
v 1.554460 -2.072778 -1.520383
v 2.013775 -1.882523 -1.520383
v 2.204031 -1.423208 -1.520383
v 1.554460 -1.423208 -1.983270
v 1.554460 -1.423208 -1.520383
v 2.013775 -0.963892 1.520383
v 1.554460 -0.773638 1.520383
v 1.095142 -0.963892 1.520383
v 0.904890 -1.423208 1.520383
v 1.095142 -1.882523 1.520383
v 1.554460 -2.072778 1.520383
v 2.013775 -1.882523 1.520383
v 2.204031 -1.423208 1.520383
v 2.013775 -0.963892 1.983270
v 1.554460 -0.773638 1.983270
v 1.095142 -0.963892 1.983270
v 0.904890 -1.423208 1.983270
v 1.095142 -1.882523 1.983270
v 1.554460 -2.072778 1.983270
v 2.013775 -1.882523 1.983270
v 2.204031 -1.423208 1.983270
v 1.554460 -1.423208 1.520383
v 1.554460 -1.423208 1.983270
v -1.121489 -0.963892 1.520383
v -1.580806 -0.773638 1.520383
v -2.040121 -0.963892 1.520383
v -2.230377 -1.423208 1.520383
v -2.040121 -1.882523 1.520383
v -1.580806 -2.072778 1.520383
v -1.121489 -1.882523 1.520383
v -0.931236 -1.423208 1.520383
v -1.121489 -0.963892 1.983270
v -1.580806 -0.773638 1.983270
v -2.040121 -0.963892 1.983270
v -2.230377 -1.423208 1.983270
v -2.040121 -1.882523 1.983270
v -1.580806 -2.072778 1.983270
v -1.121489 -1.882523 1.983270
v -0.931236 -1.423208 1.983270
v -1.580806 -1.423208 1.520383
v -1.580806 -1.423208 1.983270
v -2.399372 -1.537176 1.572390
v 2.399372 -1.537176 1.572390
v -2.399372 1.612170 1.572390
v 2.399372 1.612170 1.572390
v -2.399372 1.612170 -1.572961
v 2.399372 1.612170 -1.572961
v -2.399372 -1.537176 -1.572961
v 2.399372 -1.537176 -1.572961
v -2.458943 1.612170 1.767935
v 2.458943 1.612170 1.767935
v 2.458943 1.612170 -1.768506
v -2.458943 1.612170 -1.768506
v -2.458943 2.072778 1.767935
v 2.458943 2.072778 1.767935
v 2.458943 2.072778 -1.768506
v -2.458943 2.072778 -1.768506
v -1.964821 2.072778 1.287561
v 1.964821 2.072778 1.287561
v 1.964821 2.072778 -1.288132
v -1.964821 2.072778 -1.288132
v -1.964821 -0.666333 1.287561
v 1.964821 -0.666333 1.287561
v 1.964821 -0.666333 -1.288132
v -1.964821 -0.666333 -1.288132
vt 0.875697 0.871278
vt 0.887313 0.878404
vt 0.880356 0.882292
vt 0.868928 0.875338
vt 0.898357 0.875108
vt 0.891263 0.879015
vt 0.902426 0.863612
vt 0.895324 0.867707
vt 0.897386 0.850635
vt 0.890399 0.854976
vt 0.886129 0.843495
vt 0.879318 0.848007
vt 0.874999 0.846381
vt 0.868329 0.850890
vt 0.870571 0.857892
vt 0.863923 0.862213
vt 0.886716 0.860791
vt 0.879833 0.864997
vt 0.873569 0.870856
vt 0.885716 0.878045
vt 0.880473 0.882181
vt 0.868551 0.875179
vt 0.897704 0.874935
vt 0.892272 0.879085
vt 0.902573 0.863657
vt 0.897096 0.868000
vt 0.897757 0.850804
vt 0.892396 0.855407
vt 0.886023 0.843606
vt 0.880871 0.848394
vt 0.873956 0.846282
vt 0.868997 0.851075
vt 0.868675 0.857570
vt 0.863776 0.862171
vt 0.885871 0.860658
vt 0.880674 0.865127
vt 0.872702 0.871594
vt 0.884986 0.878503
vt 0.880521 0.882025
vt 0.868438 0.875268
vt 0.897339 0.875060
vt 0.892696 0.878606
vt 0.902573 0.863546
vt 0.897878 0.867269
vt 0.897876 0.850689
vt 0.893276 0.854637
vt 0.885954 0.843761
vt 0.881544 0.847861
vt 0.873539 0.846831
vt 0.869309 0.850920
vt 0.867942 0.858364
vt 0.863776 0.862276
vt 0.885474 0.860987
vt 0.881036 0.864803
vt 0.874517 0.871977
vt 0.886417 0.878892
vt 0.880400 0.882255
vt 0.868674 0.875482
vt 0.898016 0.875283
vt 0.891861 0.878673
vt 0.902573 0.863517
vt 0.896393 0.867079
vt 0.897644 0.850468
vt 0.891561 0.854247
vt 0.886068 0.843532
vt 0.880149 0.847453
vt 0.874400 0.846784
vt 0.868623 0.850689
vt 0.869519 0.858571
vt 0.863776 0.862304
vt 0.886241 0.861073
vt 0.880274 0.864719
vt 0.697786 0.707682
vt 0.827796 0.707682
vt 0.827796 0.823920
vt 0.697786 0.823920
vt 0.709559 0.739823
vt 0.816023 0.739823
vt 0.816023 0.739823
vt 0.709559 0.739823
vt 0.697786 0.823920
vt 0.827796 0.823920
vt 0.827796 0.707682
vt 0.697786 0.707682
vt 0.829410 0.823920
vt 0.696172 0.823920
vt 0.829410 0.823920
vt 0.696172 0.823920
vt 0.829410 0.840920
vt 0.696172 0.840920
vt 0.829410 0.840920
vt 0.696172 0.840920
vt 0.816023 0.840920
vt 0.709559 0.840920
vt 0.816023 0.840920
vt 0.709559 0.840920
vn 0.382682 0.923880 0.000000
vn 0.382682 0.923880 0.000000
vn 0.382682 0.923880 0.000000
vn 0.382682 0.923880 0.000000
vn -0.382684 0.923879 0.000000
vn -0.382684 0.923879 0.000000
vn -0.382684 0.923879 0.000000
vn -0.382684 0.923879 0.000000
vn -0.923879 0.382685 0.000000
vn -0.923879 0.382685 0.000000
vn -0.923879 0.382685 0.000000
vn -0.923879 0.382685 0.000000
vn -0.923879 -0.382685 0.000000
vn -0.923879 -0.382685 0.000000
vn -0.923879 -0.382685 0.000000
vn -0.923879 -0.382685 0.000000
vn -0.382684 -0.923880 0.000000
vn -0.382684 -0.923880 0.000000
vn -0.382684 -0.923880 0.000000
vn -0.382684 -0.923880 0.000000
vn 0.382682 -0.923880 0.000000
vn 0.382682 -0.923880 0.000000
vn 0.382682 -0.923880 0.000000
vn 0.382682 -0.923880 0.000000
vn 0.923881 -0.382680 0.000000
vn 0.923881 -0.382680 0.000000
vn 0.923881 -0.382680 0.000000
vn 0.923881 -0.382680 0.000000
vn 0.923881 0.382680 0.000000
vn 0.923881 0.382680 0.000000
vn 0.923881 0.382680 0.000000
vn 0.923881 0.382680 0.000000
vn 0.000000 0.000000 -1.000000
vn 0.000000 0.000000 -1.000000
vn 0.000000 0.000000 -1.000000
vn -0.000000 0.000000 -1.000000
vn 0.000000 0.000000 -1.000000
vn -0.000000 0.000000 -1.000000
vn -0.000000 0.000000 -1.000000
vn 0.000000 0.000000 -1.000000
vn 0.000000 0.000000 -1.000000
vn 0.000000 0.000000 1.000000
vn 0.000000 0.000000 1.000000
vn -0.000000 0.000000 1.000000
vn 0.000000 0.000000 1.000000
vn 0.000000 0.000000 1.000000
vn 0.000000 0.000000 1.000000
vn -0.000000 0.000000 1.000000
vn -0.000000 0.000000 1.000000
vn 0.000000 0.000000 1.000000
vn 0.382684 0.923879 0.000000
vn 0.382684 0.923879 0.000000
vn 0.382684 0.923879 0.000000
vn 0.382684 0.923879 0.000000
vn -0.382681 0.923880 0.000000
vn -0.382681 0.923880 0.000000
vn -0.382681 0.923880 0.000000
vn -0.382681 0.923880 0.000000
vn -0.923882 0.382679 0.000000
vn -0.923882 0.382679 0.000000
vn -0.923882 0.382679 0.000000
vn -0.923882 0.382679 0.000000
vn -0.923882 -0.382679 0.000000
vn -0.923882 -0.382679 0.000000
vn -0.923882 -0.382679 0.000000
vn -0.923882 -0.382679 0.000000
vn -0.382681 -0.923881 0.000000
vn -0.382681 -0.923881 0.000000
vn -0.382681 -0.923881 0.000000
vn -0.382681 -0.923881 0.000000
vn 0.382684 -0.923880 0.000000
vn 0.382684 -0.923880 0.000000
vn 0.382684 -0.923880 0.000000
vn 0.382684 -0.923880 0.000000
vn 0.923879 -0.382685 0.000000
vn 0.923879 -0.382685 0.000000
vn 0.923879 -0.382685 0.000000
vn 0.923879 -0.382685 0.000000
vn 0.923879 0.382685 0.000000
vn 0.923879 0.382685 0.000000
vn 0.923879 0.382685 0.000000
vn 0.923879 0.382685 0.000000
vn 0.000000 0.000000 -1.000000
vn 0.000000 0.000000 -1.000000
vn -0.000000 0.000000 -1.000000
vn -0.000000 0.000000 -1.000000
vn 0.000000 0.000000 -1.000000
vn -0.000000 0.000000 -1.000000
vn -0.000000 0.000000 -1.000000
vn 0.000000 0.000000 -1.000000
vn 0.000000 0.000000 -1.000000
vn 0.000000 0.000000 1.000000
vn 0.000000 0.000000 1.000000
vn 0.000000 0.000000 1.000000
vn 0.000000 0.000000 1.000000
vn 0.000000 0.000000 1.000000
vn 0.000000 0.000000 1.000000
vn 0.000000 0.000000 1.000000
vn -0.000000 0.000000 1.000000
vn 0.000000 0.000000 1.000000
vn 0.382684 0.923879 0.000000
vn 0.382684 0.923879 0.000000
vn 0.382684 0.923879 0.000000
vn 0.382684 0.923879 0.000000
vn -0.382681 0.923880 0.000000
vn -0.382681 0.923880 0.000000
vn -0.382681 0.923880 0.000000
vn -0.382681 0.923880 0.000000
vn -0.923882 0.382679 0.000000
vn -0.923882 0.382679 0.000000
vn -0.923882 0.382679 0.000000
vn -0.923882 0.382679 0.000000
vn -0.923882 -0.382679 0.000000
vn -0.923882 -0.382679 0.000000
vn -0.923882 -0.382679 0.000000
vn -0.923882 -0.382679 0.000000
vn -0.382681 -0.923881 0.000000
vn -0.382681 -0.923881 0.000000
vn -0.382681 -0.923881 0.000000
vn -0.382681 -0.923881 0.000000
vn 0.382684 -0.923880 0.000000
vn 0.382684 -0.923880 0.000000
vn 0.382684 -0.923880 0.000000
vn 0.382684 -0.923880 0.000000
vn 0.923879 -0.382685 0.000000
vn 0.923879 -0.382685 0.000000
vn 0.923879 -0.382685 0.000000
vn 0.923879 -0.382685 0.000000
vn 0.923879 0.382685 0.000000
vn 0.923879 0.382685 0.000000
vn 0.923879 0.382685 0.000000
vn 0.923879 0.382685 0.000000
vn 0.000000 0.000000 -1.000000
vn 0.000000 0.000000 -1.000000
vn 0.000000 0.000000 -1.000000
vn 0.000000 0.000000 -1.000000
vn 0.000000 0.000000 -1.000000
vn 0.000000 0.000000 -1.000000
vn 0.000000 0.000000 -1.000000
vn -0.000000 0.000000 -1.000000
vn 0.000000 0.000000 -1.000000
vn 0.000000 0.000000 1.000000
vn -0.000000 0.000000 1.000000
vn -0.000000 0.000000 1.000000
vn -0.000000 0.000000 1.000000
vn 0.000000 0.000000 1.000000
vn -0.000000 0.000000 1.000000
vn 0.000000 0.000000 1.000000
vn 0.000000 0.000000 1.000000
vn 0.000000 0.000000 1.000000
vn 0.382682 0.923880 0.000000
vn 0.382682 0.923880 0.000000
vn 0.382682 0.923880 0.000000
vn 0.382682 0.923880 0.000000
vn -0.382684 0.923879 0.000000
vn -0.382684 0.923879 0.000000
vn -0.382684 0.923879 0.000000
vn -0.382684 0.923879 0.000000
vn -0.923879 0.382685 0.000000
vn -0.923879 0.382685 0.000000
vn -0.923879 0.382685 0.000000
vn -0.923879 0.382685 0.000000
vn -0.923879 -0.382685 0.000000
vn -0.923879 -0.382685 0.000000
vn -0.923879 -0.382685 0.000000
vn -0.923879 -0.382685 0.000000
vn -0.382684 -0.923880 0.000000
vn -0.382684 -0.923880 0.000000
vn -0.382684 -0.923880 0.000000
vn -0.382684 -0.923880 0.000000
vn 0.382682 -0.923880 0.000000
vn 0.382682 -0.923880 0.000000
vn 0.382682 -0.923880 0.000000
vn 0.382682 -0.923880 0.000000
vn 0.923881 -0.382680 0.000000
vn 0.923881 -0.382680 0.000000
vn 0.923881 -0.382680 0.000000
vn 0.923881 -0.382680 0.000000
vn 0.923881 0.382680 0.000000
vn 0.923881 0.382680 0.000000
vn 0.923881 0.382680 0.000000
vn 0.923881 0.382680 0.000000
vn 0.000000 0.000000 -1.000000
vn 0.000000 0.000000 -1.000000
vn -0.000000 0.000000 -1.000000
vn 0.000000 0.000000 -1.000000
vn 0.000000 0.000000 -1.000000
vn 0.000000 0.000000 -1.000000
vn -0.000000 0.000000 -1.000000
vn -0.000000 0.000000 -1.000000
vn 0.000000 0.000000 -1.000000
vn 0.000000 0.000000 1.000000
vn -0.000000 0.000000 1.000000
vn 0.000000 0.000000 1.000000
vn -0.000000 0.000000 1.000000
vn 0.000000 0.000000 1.000000
vn -0.000000 0.000000 1.000000
vn 0.000000 0.000000 1.000000
vn 0.000000 0.000000 1.000000
vn 0.000000 0.000000 1.000000
vn 0.000000 0.000000 1.000000
vn 0.000000 0.000000 1.000000
vn 0.000000 0.000000 1.000000
vn 0.000000 0.000000 1.000000
vn 0.000000 1.000000 0.000000
vn 0.000000 1.000000 0.000000
vn 0.000000 1.000000 0.000000
vn 0.000000 1.000000 0.000000
vn 0.000000 0.000000 -1.000000
vn 0.000000 0.000000 -1.000000
vn 0.000000 0.000000 -1.000000
vn 0.000000 0.000000 -1.000000
vn 0.000000 -1.000000 0.000000
vn 0.000000 -1.000000 0.000000
vn 0.000000 -1.000000 0.000000
vn 0.000000 -1.000000 0.000000
vn 1.000000 0.000000 0.000000
vn 1.000000 0.000000 0.000000
vn 1.000000 0.000000 0.000000
vn 1.000000 0.000000 0.000000
vn -1.000000 0.000000 0.000000
vn -1.000000 0.000000 0.000000
vn -1.000000 0.000000 0.000000
vn -1.000000 0.000000 0.000000
vn 0.000000 -1.000000 0.000000
vn 0.000000 -1.000000 0.000000
vn 0.000000 -1.000000 0.000000
vn 0.000000 -1.000000 0.000000
vn 0.000000 -1.000000 -0.000000
vn 0.000000 -1.000000 -0.000000
vn 0.000000 -1.000000 -0.000000
vn 0.000000 -1.000000 -0.000000
vn 0.000000 0.000000 1.000000
vn 0.000000 0.000000 1.000000
vn 0.000000 0.000000 1.000000
vn 0.000000 0.000000 1.000000
vn 1.000000 0.000000 0.000000
vn 1.000000 0.000000 0.000000
vn 1.000000 0.000000 0.000000
vn 1.000000 0.000000 0.000000
vn 0.000000 0.000000 -1.000000
vn 0.000000 0.000000 -1.000000
vn 0.000000 0.000000 -1.000000
vn 0.000000 0.000000 -1.000000
vn -1.000000 0.000000 0.000000
vn -1.000000 0.000000 0.000000
vn -1.000000 0.000000 0.000000
vn -1.000000 0.000000 0.000000
vn 0.000000 1.000000 -0.000000
vn 0.000000 1.000000 -0.000000
vn 0.000000 1.000000 -0.000000
vn 0.000000 1.000000 -0.000000
vn 0.000000 1.000000 0.000000
vn 0.000000 1.000000 0.000000
vn 0.000000 1.000000 0.000000
vn 0.000000 1.000000 0.000000
vn 0.000000 0.000000 -1.000000
vn 0.000000 0.000000 -1.000000
vn 0.000000 0.000000 -1.000000
vn 0.000000 0.000000 -1.000000
vn -1.000000 0.000000 0.000000
vn -1.000000 0.000000 0.000000
vn -1.000000 0.000000 0.000000
vn -1.000000 0.000000 0.000000
vn 0.000000 0.000000 1.000000
vn 0.000000 0.000000 1.000000
vn 0.000000 0.000000 1.000000
vn 0.000000 0.000000 1.000000
vn 1.000000 0.000000 0.000000
vn 1.000000 0.000000 0.000000
vn 1.000000 0.000000 0.000000
vn 1.000000 0.000000 0.000000
s off
g MineCart
usemtl initialShadingGroup
f 1/1/1 2/2/2 10/3/3 9/4/4
f 2/2/5 3/5/6 11/6/7 10/3/8
f 3/5/9 4/7/10 12/8/11 11/6/12
f 4/7/13 5/9/14 13/10/15 12/8/16
f 5/9/17 6/11/18 14/12/19 13/10/20
f 6/11/21 7/13/22 15/14/23 14/12/24
f 7/13/25 8/15/26 16/16/27 15/14/28
f 8/15/29 1/1/30 9/4/31 16/16/32
s 1
f 2/2/33 1/1/34 17/17/35
f 3/5/36 2/2/33 17/17/35
f 4/7/37 3/5/36 17/17/35
f 5/9/38 4/7/37 17/17/35
f 6/11/39 5/9/38 17/17/35
f 7/13/40 6/11/39 17/17/35
f 8/15/41 7/13/40 17/17/35
f 1/1/34 8/15/41 17/17/35
s 2
f 9/4/42 10/3/43 18/18/44
f 10/3/43 11/6/45 18/18/44
f 11/6/45 12/8/46 18/18/44
f 12/8/46 13/10/47 18/18/44
f 13/10/47 14/12/48 18/18/44
f 14/12/48 15/14/49 18/18/44
f 15/14/49 16/16/50 18/18/44
f 16/16/50 9/4/42 18/18/44
s off
f 19/19/51 20/20/52 28/21/53 27/22/54
f 20/20/55 21/23/56 29/24/57 28/21/58
f 21/23/59 22/25/60 30/26/61 29/24/62
f 22/25/63 23/27/64 31/28/65 30/26/66
f 23/27/67 24/29/68 32/30/69 31/28/70
f 24/29/71 25/31/72 33/32/73 32/30/74
f 25/31/75 26/33/76 34/34/77 33/32/78
f 26/33/79 19/19/80 27/22/81 34/34/82
s 3
f 20/20/83 19/19/84 35/35/85
f 21/23/86 20/20/83 35/35/85
f 22/25/87 21/23/86 35/35/85
f 23/27/88 22/25/87 35/35/85
f 24/29/89 23/27/88 35/35/85
f 25/31/90 24/29/89 35/35/85
f 26/33/91 25/31/90 35/35/85
f 19/19/84 26/33/91 35/35/85
s 4
f 27/22/92 28/21/93 36/36/94
f 28/21/93 29/24/95 36/36/94
f 29/24/95 30/26/96 36/36/94
f 30/26/96 31/28/97 36/36/94
f 31/28/97 32/30/98 36/36/94
f 32/30/98 33/32/99 36/36/94
f 33/32/99 34/34/100 36/36/94
f 34/34/100 27/22/92 36/36/94
s off
f 37/37/101 38/38/102 46/39/103 45/40/104
f 38/38/105 39/41/106 47/42/107 46/39/108
f 39/41/109 40/43/110 48/44/111 47/42/112
f 40/43/113 41/45/114 49/46/115 48/44/116
f 41/45/117 42/47/118 50/48/119 49/46/120
f 42/47/121 43/49/122 51/50/123 50/48/124
f 43/49/125 44/51/126 52/52/127 51/50/128
f 44/51/129 37/37/130 45/40/131 52/52/132
s 5
f 38/38/133 37/37/134 53/53/135
f 39/41/136 38/38/133 53/53/135
f 40/43/137 39/41/136 53/53/135
f 41/45/138 40/43/137 53/53/135
f 42/47/139 41/45/138 53/53/135
f 43/49/140 42/47/139 53/53/135
f 44/51/141 43/49/140 53/53/135
f 37/37/134 44/51/141 53/53/135
s 6
f 45/40/142 46/39/143 54/54/144
f 46/39/143 47/42/145 54/54/144
f 47/42/145 48/44/146 54/54/144
f 48/44/146 49/46/147 54/54/144
f 49/46/147 50/48/148 54/54/144
f 50/48/148 51/50/149 54/54/144
f 51/50/149 52/52/150 54/54/144
f 52/52/150 45/40/142 54/54/144
s off
f 55/55/151 56/56/152 64/57/153 63/58/154
f 56/56/155 57/59/156 65/60/157 64/57/158
f 57/59/159 58/61/160 66/62/161 65/60/162
f 58/61/163 59/63/164 67/64/165 66/62/166
f 59/63/167 60/65/168 68/66/169 67/64/170
f 60/65/171 61/67/172 69/68/173 68/66/174
f 61/67/175 62/69/176 70/70/177 69/68/178
f 62/69/179 55/55/180 63/58/181 70/70/182
s 7
f 56/56/183 55/55/184 71/71/185
f 57/59/186 56/56/183 71/71/185
f 58/61/187 57/59/186 71/71/185
f 59/63/188 58/61/187 71/71/185
f 60/65/189 59/63/188 71/71/185
f 61/67/190 60/65/189 71/71/185
f 62/69/191 61/67/190 71/71/185
f 55/55/184 62/69/191 71/71/185
s 8
f 63/58/192 64/57/193 72/72/194
f 64/57/193 65/60/195 72/72/194
f 65/60/195 66/62/196 72/72/194
f 66/62/196 67/64/197 72/72/194
f 67/64/197 68/66/198 72/72/194
f 68/66/198 69/68/199 72/72/194
f 69/68/199 70/70/200 72/72/194
f 70/70/200 63/58/192 72/72/194
s off
f 73/73/201 74/74/202 76/75/203 75/76/204
f 93/77/205 94/78/206 95/79/207 96/80/208
f 77/81/209 78/82/210 80/83/211 79/84/212
f 79/84/213 80/83/214 74/74/215 73/73/216
f 74/74/217 80/83/218 78/82/219 76/75/220
f 79/84/221 73/73/222 75/76/223 77/81/224
s 9
f 75/76/225 76/75/226 82/85/227 81/86/228
f 76/75/226 78/82/229 83/87/230 82/85/227
f 78/82/229 77/81/231 84/88/232 83/87/230
f 77/81/231 75/76/225 81/86/228 84/88/232
s off
f 81/86/233 82/85/234 86/89/235 85/90/236
f 82/85/237 83/87/238 87/91/239 86/89/240
f 83/87/241 84/88/242 88/92/243 87/91/244
f 84/88/245 81/86/246 85/90/247 88/92/248
s 10
f 85/90/249 86/89/250 90/93/251 89/94/252
f 86/89/250 87/91/253 91/95/254 90/93/251
f 87/91/253 88/92/255 92/96/256 91/95/254
f 88/92/255 85/90/249 89/94/252 92/96/256
s off
f 89/94/257 90/93/258 94/78/259 93/77/260
f 90/93/261 91/95/262 95/79/263 94/78/264
f 91/95/265 92/96/266 96/80/267 95/79/268
f 92/96/269 89/94/270 93/77/271 96/80/272
