# This file uses centimeters as units for non-parametric coordinates.

mtllib WoodenBoard.mtl
g default
v -2.810695 -0.420253 1.700745
v 2.810695 -0.420253 1.700745
v -2.810695 0.420253 1.700745
v 2.810695 0.420253 1.700745
v -2.810695 0.420253 -1.700745
v 2.810695 0.420253 -1.700745
v -2.810695 -0.420253 -1.700745
v 2.810695 -0.420253 -1.700745
vt 0.740243 0.256148
vt 0.534449 0.011461
vt 0.534449 0.256148
vt 0.714404 0.256148
vt 0.534449 0.147258
vt 0.714404 0.147258
vt 0.506474 0.147258
vt 0.714404 0.120351
vt 0.534449 0.120351
vt 0.534449 0.283055
vt 0.506474 0.256148
vt 0.740243 0.147258
vt 0.714404 0.283055
vt 0.714404 0.011461
vn 0.000000 0.000000 1.000000
vn 0.000000 0.000000 1.000000
vn 0.000000 0.000000 1.000000
vn 0.000000 0.000000 1.000000
vn 0.000000 1.000000 0.000000
vn 0.000000 1.000000 0.000000
vn 0.000000 1.000000 0.000000
vn 0.000000 1.000000 0.000000
vn 0.000000 0.000000 -1.000000
vn 0.000000 0.000000 -1.000000
vn 0.000000 0.000000 -1.000000
vn 0.000000 0.000000 -1.000000
vn 0.000000 -1.000000 0.000000
vn 0.000000 -1.000000 0.000000
vn 0.000000 -1.000000 0.000000
vn 0.000000 -1.000000 0.000000
vn 1.000000 0.000000 0.000000
vn 1.000000 0.000000 0.000000
vn 1.000000 0.000000 0.000000
vn 1.000000 0.000000 0.000000
vn -1.000000 0.000000 0.000000
vn -1.000000 0.000000 0.000000
vn -1.000000 0.000000 0.000000
vn -1.000000 0.000000 0.000000
s off
g Plate01
usemtl initialShadingGroup
f 1/13/1 2/10/2 4/3/3 3/4/4
f 3/4/5 4/3/6 6/5/7 5/6/8
f 5/6/9 6/5/10 8/9/11 7/8/12
f 7/8/13 8/9/14 2/2/15 1/14/16
f 2/11/17 8/7/18 6/5/19 4/3/20
f 7/12/21 1/1/22 3/4/23 5/6/24
